<svg xmlns="http://www.w3.org/2000/svg" viewBox="0 0 512 512">
  <defs>
    <linearGradient id="shopee" x1="0" y1="0" x2="0" y2="1">
      <stop offset="0" stop-color="#ee4d2d"/>
      <stop offset="1" stop-color="#ff7337"/>
    </linearGradient>
  </defs>
  <rect width="512" height="512" rx="104" fill="url(#shopee)"/>
  <!-- handle (terlihat di atas badan tas) -->
  <path d="M198 214 V176 a58 58 0 0 1 116 0 V214"
        fill="none" stroke="#fff" stroke-width="26" stroke-linecap="round"/>
  <!-- badan tas -->
  <path d="M150 200 h212 a16 16 0 0 1 16 17 l-12 168 a40 40 0 0 1 -40 37 H186 a40 40 0 0 1 -40 -37 l-12 -168 a16 16 0 0 1 16 -17 z"
        fill="#fff"/>
  <!-- garis handle pada badan tas (aksen) -->
  <path d="M206 248 v-30 M306 248 v-30"
        fill="none" stroke="#ee4d2d" stroke-width="16" stroke-linecap="round"/>
</svg>
